<?xml version="1.0" encoding="UTF-8" standalone="no"?>
<!-- Created with Inkscape (http://www.inkscape.org/) -->

<svg
   xmlns:dc="http://purl.org/dc/elements/1.1/"
   xmlns:cc="http://creativecommons.org/ns#"
   xmlns:rdf="http://www.w3.org/1999/02/22-rdf-syntax-ns#"
   xmlns:svg="http://www.w3.org/2000/svg"
   xmlns="http://www.w3.org/2000/svg"
   xmlns:sodipodi="http://sodipodi.sourceforge.net/DTD/sodipodi-0.dtd"
   xmlns:inkscape="http://www.inkscape.org/namespaces/inkscape"
   width="640"
   height="640"
   id="svg8256"
   version="1.1"
   inkscape:version="0.48.5 r10040"
   sodipodi:docname="Novo documento 7">
  <defs
     id="defs8258" />
  <sodipodi:namedview
     id="base"
     pagecolor="#ffffff"
     bordercolor="#666666"
     borderopacity="1.0"
     inkscape:pageopacity="0.0"
     inkscape:pageshadow="2"
     inkscape:zoom="0.98994949"
     inkscape:cx="456.69298"
     inkscape:cy="272.93115"
     inkscape:document-units="px"
     inkscape:current-layer="layer1"
     showgrid="false"
     showguides="true"
     inkscape:guide-bbox="true"
     inkscape:window-width="1920"
     inkscape:window-height="952"
     inkscape:window-x="0"
     inkscape:window-y="27"
     inkscape:window-maximized="1">
    <sodipodi:guide
       orientation="1,0"
       position="320.21836,220.21325"
       id="guide8278" />
    <sodipodi:guide
       orientation="0,1"
       position="364.66507,321.22851"
       id="guide8280" />
  </sodipodi:namedview>
  <metadata
     id="metadata8261">
    <rdf:RDF>
      <cc:Work
         rdf:about="">
        <dc:format>image/svg+xml</dc:format>
        <dc:type
           rdf:resource="http://purl.org/dc/dcmitype/StillImage" />
        <dc:title></dc:title>
      </cc:Work>
    </rdf:RDF>
  </metadata>
  <g
     inkscape:label="Camada 1"
     inkscape:groupmode="layer"
     id="layer1"
     transform="translate(0,-412.36218)">
    <rect
       style="fill:#3d6070;fill-opacity:1;stroke:#80b9c3;stroke-width:0.13790131999999999;stroke-miterlimit:4;stroke-opacity:1;stroke-dasharray:none"
       id="rect8264"
       width="639.8067"
       height="639.64441"
       x="0.13504028"
       y="412.58768" />
    <g
       id="g8336"
       transform="matrix(9.8070903,0,0,9.8070903,-5730.6936,-8244.5837)">
      <path
         inkscape:connector-curvature="0"
         id="path1588"
         style="fill:#ffffff;fill-opacity:1;fill-rule:nonzero;stroke:none"
         d="m 614.17511,900.63501 -2.5,0 0,-7.91625 2.5,0 0,7.91625 z" />
      <path
         inkscape:connector-curvature="0"
         id="path1590"
         style="fill:#ffffff;fill-opacity:1;fill-rule:nonzero;stroke:none"
         d="m 623.23761,900.63501 -2.5,0 0,-7.91625 2.5,0 0,7.91625 z" />
      <path
         inkscape:connector-curvature="0"
         id="path1592"
         style="fill:#ffffff;fill-opacity:1;fill-rule:nonzero;stroke:none"
         d="m 632.30011,900.63501 -2.5,0 0,-7.91625 2.5,0 0,7.91625 z" />
      <path
         d="m 635.70098,933.56989 c 0,0.90875 -0.74,1.65 -1.65,1.65 l -24.12375,0 c -0.91125,0 -1.65,-0.74125 -1.65,-1.65 l 0,-26.43625 27.42375,0 0,26.43625 z m -29.92375,-5.5175 -1.49,0 c -3.14375,0 -5.7025,-2.55875 -5.7025,-5.705 l 0,-2.34375 c 0,-3.14375 2.55875,-5.7025 5.7025,-5.7025 l 1.49,0 0,13.75125 z m 0,-23.41875 0,7.1675 -1.49,0 c -4.53125,0 -8.2025,3.67125 -8.2025,8.2025 l 0,2.34375 c 0,4.5325 3.67125,8.205 8.2025,8.205 l 1.49,0 0,3.0175 c 0,2.2925 1.8575,4.15 4.15,4.15 l 24.12375,0 c 2.2925,0 4.15,-1.8575 4.15,-4.15 l 0,-28.93625 -32.42375,0 z"
         style="fill:#ffffff;fill-opacity:1;fill-rule:nonzero;stroke:none"
         id="path1596"
         inkscape:connector-curvature="0" />
    </g>
  </g>
</svg>
